<svg width="92" height="28" viewBox="0 0 92 28" fill="none" xmlns="http://www.w3.org/2000/svg">
<g clip-path="url(#clip0_292_684)">
<path d="M78.9407 22.8718C79.6786 23.6953 81.6038 25.0055 84.3953 25.0055C88.9516 25.0055 88.8232 20.1766 88.7911 18.3799V18.2676C87.7002 19.69 86.0959 21.075 83.6573 21.075C78.1706 21.075 77.561 16.2836 77.561 13.7382V5.83984H80.7696V13.7382C80.7696 15.9467 81.7643 17.3692 83.6573 17.7061C85.9996 18.1178 88.7911 15.6847 88.7911 13.5136V5.83984H91.9998V18.3799C91.9677 21.6739 91.2939 28.0001 84.3953 28.0001C80.8337 28.0001 78.3952 26.6525 77.208 25.6793L78.9407 22.8718Z" fill="white"/>
<path d="M71.3945 0.262207H74.6352V22.5722H71.3945V0.262207Z" fill="white"/>
<path d="M63.0293 6.85021H66.27V22.572H63.0293V6.85021ZM62.3555 2.20854C62.3555 0.973253 62.9651 0 64.6015 0C66.3021 0 66.9117 0.973253 66.9117 2.20854C66.9117 3.40639 66.3021 4.37964 64.6015 4.37964C62.9651 4.37964 62.3555 3.40639 62.3555 2.20854Z" fill="white"/>
<path d="M43.1602 11.0801H55.2888V14.4865H43.1602V11.0801Z" fill="white"/>
<path d="M36.1077 5.87744V22.5725H32.8991V20.5137C31.8082 21.8987 29.883 22.9468 27.4124 22.9468C21.9256 22.9468 20.9951 17.1447 20.9951 14.5993V14.225C20.9951 11.6795 21.9256 5.87744 27.4124 5.87744C29.883 5.87744 31.8082 6.92556 32.8991 8.31058V5.87744H36.1077ZM24.2037 14.225C24.2037 18.0806 25.6155 19.3533 27.7332 19.8399C29.4017 20.2142 31.1985 19.765 32.1932 17.6688C32.5782 16.8078 32.6745 15.7223 32.6745 14.4496V14.3747C32.6745 13.3266 32.4499 11.8293 32.0649 11.0432C31.3269 9.54586 29.498 8.87207 27.9257 8.87207C25.7439 8.87207 24.2037 11.0806 24.2037 14.225Z" fill="white"/>
<path d="M12.9628 1.72168C16.0752 1.72168 19.3801 5.46497 19.3801 12.3152C19.3801 18.7911 16.0752 22.5718 12.9628 22.5718H0V1.72168H12.9628ZM3.27279 19.1654H11.7115C13.765 19.1654 16.1715 16.62 16.1715 12.3152C16.1715 7.59864 13.765 5.12807 11.7115 5.12807H3.27279V19.1654Z" fill="white"/>
</g>
<defs>
<clipPath id="clip0_292_684">
<rect width="91.9998" height="28" fill="white"/>
</clipPath>
</defs>
</svg>
