<svg width="280" height="76" viewBox="0 0 280 76" fill="none" xmlns="http://www.w3.org/2000/svg">
<g clip-path="url(#clip0_292_635)">
<path d="M238.415 61.7002C240.715 63.9002 246.715 67.4002 255.415 67.4002C269.615 67.4002 269.215 54.5002 269.115 49.7002V49.4002C265.715 53.2002 260.715 56.9002 253.115 56.9002C236.015 56.9002 234.115 44.1002 234.115 37.3002V16.2002H244.115V37.3002C244.115 43.2002 247.215 47.0002 253.115 47.9002C260.415 49.0002 269.115 42.5002 269.115 36.7002V16.2002H279.115V49.7002C279.015 58.5002 276.915 75.4002 255.415 75.4002C244.315 75.4002 236.715 71.8002 233.015 69.2002L238.415 61.7002Z" fill="#F2DEDE"/>
<path d="M216.594 1.30029H226.694V60.9003H216.594V1.30029Z" fill="#F2DEDE"/>
<path d="M192.222 18.9001H202.322V60.9001H192.222V18.9001ZM190.122 6.50009C190.122 3.20009 192.022 0.600098 197.122 0.600098C202.422 0.600098 204.322 3.20009 204.322 6.50009C204.322 9.70009 202.422 12.3001 197.122 12.3001C192.022 12.3001 190.122 9.70009 190.122 6.50009Z" fill="#F2DEDE"/>
<path d="M131.997 30.2002H169.797V39.3002H131.997V30.2002Z" fill="#F2DEDE"/>
<path d="M111.719 16.3003V60.9003H101.719V55.4003C98.3191 59.1003 92.3191 61.9003 84.6191 61.9003C67.5191 61.9003 64.6191 46.4003 64.6191 39.6003V38.6003C64.6191 31.8003 67.5191 16.3003 84.6191 16.3003C92.3191 16.3003 98.3191 19.1003 101.719 22.8003V16.3003H111.719ZM74.6191 38.6003C74.6191 48.9003 79.0191 52.3003 85.6191 53.6003C90.8191 54.6003 96.4191 53.4003 99.5191 47.8003C100.719 45.5003 101.019 42.6003 101.019 39.2003V39.0003C101.019 36.2003 100.319 32.2003 99.1191 30.1003C96.8191 26.1003 91.1191 24.3003 86.2191 24.3003C79.4191 24.3003 74.6191 30.2003 74.6191 38.6003Z" fill="#F2DEDE"/>
<path d="M41.2857 5.2002C50.9857 5.2002 61.2857 15.2002 61.2857 33.5002C61.2857 50.8002 50.9857 60.9002 41.2857 60.9002H0.885742V5.2002H41.2857ZM11.0857 51.8002H37.3857C43.7857 51.8002 51.2857 45.0002 51.2857 33.5002C51.2857 20.9002 43.7857 14.3002 37.3857 14.3002H11.0857V51.8002Z" fill="#F2DEDE"/>
</g>
<defs>
<clipPath id="clip0_292_635">
<rect width="280" height="76" fill="white"/>
</clipPath>
</defs>
</svg>
