<svg width="38" height="38" viewBox="0 0 38 38" fill="current" xmlns="http://www.w3.org/2000/svg">
<path d="M19.0007 1.5835L12.6673 7.91683H17.4173V22.1668H20.584V7.91683H25.334M28.5007 36.4168H9.50065C7.74315 36.4168 6.33398 34.9918 6.33398 33.2502V14.2502C6.33398 13.4103 6.66761 12.6049 7.26148 12.011C7.85534 11.4171 8.6608 11.0835 9.50065 11.0835H14.2507V14.2502H9.50065V33.2502H28.5007V14.2502H23.7507V11.0835H28.5007C29.3405 11.0835 30.146 11.4171 30.7398 12.011C31.3337 12.6049 31.6673 13.4103 31.6673 14.2502V33.2502C31.6673 34.09 31.3337 34.8955 30.7398 35.4893C30.146 36.0832 29.3405 36.4168 28.5007 36.4168Z" fill="current"/>
</svg>
