<svg width="90" height="37" viewBox="0 0 90 37" fill="none" xmlns="http://www.w3.org/2000/svg">
  <path d="M10 3.2C13.6533 3.2 16.4533 4.24 18.4 6.32C20.3467 8.4 21.32 11.3867 21.32 15.28C21.32 19.7867 20.2667 23.24 18.16 25.64C16.0533 28.04 13.0267 29.24 9.08 29.24C7.98667 29.24 6.65333 29.2133 5.08 29.16C3.53333 29.1333 2.09333 29.08 0.76 29H0.72L0.92 21.28L0.72 3.36H0.76L10 3.2ZM9.6 26.56C12.32 26.56 14.4 25.68 15.84 23.92C17.3067 22.1333 18.04 19.48 18.04 15.96C18.04 9.24 15.28 5.88 9.76 5.88C8.08 5.88 6.14667 5.93333 3.96 6.04L3.8 21L3.92 26.32C4.74667 26.4 5.73333 26.4667 6.88 26.52C8.05333 26.5467 8.96 26.56 9.6 26.56ZM32.0994 10.36C33.8327 10.36 35.1927 10.7867 36.1794 11.64C37.1927 12.4933 37.6994 13.6667 37.6994 15.16C37.6994 15.6133 37.6194 17.2533 37.4594 20.08C37.2994 22.9067 37.2194 24.56 37.2194 25.04C37.2194 25.6267 37.3127 26.04 37.4994 26.28C37.686 26.4933 38.006 26.6 38.4594 26.6C38.8594 26.6 39.3127 26.52 39.8194 26.36L40.1394 26.64L39.8194 28.44C39.046 28.8933 38.286 29.16 37.5394 29.24C36.7127 29.16 36.046 28.8667 35.5394 28.36C35.0594 27.8533 34.806 27.16 34.7794 26.28H34.4994C33.0594 27.7467 31.6327 28.7467 30.2194 29.28C28.4327 29.28 27.0327 28.84 26.0194 27.96C25.0327 27.0533 24.5394 25.8267 24.5394 24.28C24.5394 23.1067 24.846 22.1733 25.4594 21.48C26.0994 20.7867 27.0327 20.2933 28.2594 20L34.7394 18.48L34.7794 15.88C34.7794 14.84 34.4994 14.04 33.9394 13.48C33.406 12.92 32.6327 12.64 31.6194 12.64C30.7127 12.64 29.806 12.8533 28.8994 13.28C27.9927 13.7067 27.0194 14.3733 25.9794 15.28L25.6594 15.12L25.2594 12.84C27.4727 11.1867 29.7527 10.36 32.0994 10.36ZM28.8994 21.92C28.366 22.08 27.9794 22.3067 27.7394 22.6C27.4994 22.8667 27.3794 23.28 27.3794 23.84C27.3794 24.72 27.6194 25.4133 28.0994 25.92C28.606 26.4 29.2727 26.64 30.0994 26.64C31.566 26.64 33.0594 25.6933 34.5794 23.8L34.6994 20.52L28.8994 21.92ZM52.4559 17.28V19.28L42.8159 20.68L42.4959 20.36V18.36L52.1759 17L52.4559 17.28ZM57.0016 21.24L56.8816 10.88L59.9616 10.6L59.8816 20.96L59.9616 29H56.8416L57.0016 21.24ZM58.4816 2.48C59.0149 2.48 59.4416 2.64 59.7616 2.96C60.0816 3.28 60.2416 3.72 60.2416 4.28C60.2416 4.86667 60.0682 5.33333 59.7216 5.68C59.4016 6.02667 58.9482 6.2 58.3616 6.2C57.8016 6.2 57.3616 6.04 57.0416 5.72C56.7482 5.4 56.6016 4.94666 56.6016 4.36C56.6016 3.8 56.7616 3.34667 57.0816 3C57.4282 2.65333 57.8949 2.48 58.4816 2.48ZM69.6091 20.96L69.8091 29H66.6491L66.8891 21.2L66.6891 1.2L69.8491 0.919999L69.6091 20.96ZM77.0928 12.92L81.4928 25.56H81.7728L86.3328 13.2L86.9328 10.68H89.7728L83.2128 28.36C82.5461 30.1733 81.8261 31.6 81.0528 32.64C80.3061 33.68 79.3861 34.4933 78.2928 35.08C77.2261 35.6933 75.8128 36.2133 74.0528 36.64H73.7728C73.2128 36.08 72.7728 35.4533 72.4528 34.76L72.5328 34.4C74.5595 34 76.1061 33.4267 77.1728 32.68C78.2661 31.96 79.2795 30.7333 80.2128 29L73.4928 10.76L76.4928 10.56L77.0928 12.92Z" fill="white"/>
</svg>
