<svg width="15" height="15" viewBox="0 0 32 32" fill="#74ABD9" xmlns="http://www.w3.org/2000/svg">
    <path d="M5.19673 5.19575C4.02192 6.37056 3.33398 8.35595 3.33398 11.7497V20.2497C3.33398 23.6434 4.02192 25.6288 5.19673 26.8036C6.37154 27.9784 8.35693 28.6663 11.7507 28.6663H20.2507C23.6444 28.6663 25.6298 27.9784 26.8046 26.8036C27.9794 25.6288 28.6673 23.6434 28.6673 20.2497V13.1663C28.6673 12.3379 29.3389 11.6663 30.1673 11.6663C30.9957 11.6663 31.6673 12.3379 31.6673 13.1663V20.2497C31.6673 23.9393 30.9386 26.9122 28.9259 28.9249C26.9132 30.9376 23.9403 31.6663 20.2507 31.6663H11.7507C8.06104 31.6663 5.0881 30.9376 3.07541 28.9249C1.06272 26.9122 0.333984 23.9393 0.333984 20.2497V11.7497C0.333984 8.06006 1.06272 5.08712 3.07541 3.07443C5.0881 1.06174 8.06104 0.333008 11.7507 0.333008H18.834C19.6624 0.333008 20.334 1.00458 20.334 1.83301C20.334 2.66143 19.6624 3.33301 18.834 3.33301H11.7507C8.35693 3.33301 6.37154 4.02094 5.19673 5.19575Z"/>
    <path d="M18.26 0.447232C18.8205 0.215061 19.4656 0.343395 19.8946 0.772392L31.228 12.1057C31.657 12.5347 31.7853 13.1799 31.5531 13.7404C31.321 14.3009 30.774 14.6664 30.1673 14.6664H24.5007C22.2926 14.6664 20.3432 14.3177 19.0129 12.9875C17.6826 11.6572 17.334 9.70782 17.334 7.49972V1.83305C17.334 1.22636 17.6994 0.679404 18.26 0.447232ZM20.334 5.45437V7.49972C20.334 9.54162 20.6937 10.4256 21.1342 10.8661C21.5748 11.3067 22.4587 11.6664 24.5007 11.6664H26.546L20.334 5.45437Z"/>
    <path d="M13.6631 11.5C14.4915 11.5 15.1631 12.1716 15.1631 13V23.2343C15.1631 24.0627 14.4915 24.7343 13.6631 24.7343C12.8347 24.7343 12.1631 24.0627 12.1631 23.2343V13C12.1631 12.1716 12.8347 11.5 13.6631 11.5Z"/>
    <path d="M7.83342 18.4573C8.35411 17.813 9.29855 17.7128 9.94289 18.2335L14.9351 22.2676C15.5794 22.7883 15.6797 23.7328 15.159 24.3771C14.6383 25.0214 13.6938 25.1217 13.0495 24.601L8.05731 20.5668C7.41297 20.0461 7.31273 19.1017 7.83342 18.4573Z"/>
    <path d="M20.151 18.4915C19.6303 17.8472 18.6858 17.7469 18.0415 18.2676L13.0493 22.3018C12.405 22.8225 12.3047 23.7669 12.8254 24.4113C13.3461 25.0556 14.2905 25.1559 14.9349 24.6352L19.9271 20.601C20.5714 20.0803 20.6716 19.1359 20.151 18.4915Z"/>
</svg>
