<svg width="10" height="10" viewBox="0 0 31 30" fill="#74ABD9" xmlns="http://www.w3.org/2000/svg">
    <path d="M12.9096 29.0122C15.728 27.9039 15.1105 24.848 13.6855 22.9164C12.2763 20.9372 10.3288 19.5755 8.36548 18.2614C6.97215 17.3747 5.68965 16.2664 4.66048 14.9997C4.21715 14.4772 3.31465 13.5114 4.23298 13.3214C5.16715 13.1314 6.78215 14.0497 7.60548 14.398C9.04632 14.9997 10.4713 15.6964 11.8013 16.5197L13.4005 13.828C10.9305 12.1972 7.76381 10.7564 4.81881 10.3289C3.14048 10.0755 1.36715 10.4239 0.797148 12.2447C0.290481 13.8122 1.09798 15.3955 2.01631 16.6305C4.18548 19.528 7.55798 20.9214 10.0755 23.423C10.6138 23.9455 11.263 24.563 11.5796 25.2914C11.9121 25.988 11.833 26.0355 11.0888 26.0355C9.12548 26.0355 6.67132 24.4997 5.07215 23.4864L3.47298 26.178C5.89548 27.6664 9.94881 29.9939 12.9096 29.0122ZM30.4688 4.3122C30.8171 3.96387 30.8171 3.39387 30.4688 3.06137L28.4105 1.00304C28.078 0.670537 27.508 0.670537 27.1755 1.00304L25.5605 2.61804L28.8538 5.91137M14.8888 13.2897V16.583H18.1821L27.9196 6.84554L24.6263 3.5522L14.8888 13.2897Z" />
</svg>
