<svg width="10" height="10" viewBox="0 0 33 33" fill="black" xmlns="http://www.w3.org/2000/svg">
    <path d="M16.6375 25.5062L16.5 25.6437L16.3488 25.5062C9.8175 19.58 5.5 15.6613 5.5 11.6875C5.5 8.9375 7.5625 6.875 10.3125 6.875C12.43 6.875 14.4925 8.25 15.2212 10.12H17.7788C18.5075 8.25 20.57 6.875 22.6875 6.875C25.4375 6.875 27.5 8.9375 27.5 11.6875C27.5 15.6613 23.1825 19.58 16.6375 25.5062ZM22.6875 4.125C20.295 4.125 17.9987 5.23875 16.5 6.985C15.0013 5.23875 12.705 4.125 10.3125 4.125C6.0775 4.125 2.75 7.43875 2.75 11.6875C2.75 16.8713 7.425 21.12 14.5063 27.5413L16.5 29.3563L18.4937 27.5413C25.575 21.12 30.25 16.8713 30.25 11.6875C30.25 7.43875 26.9225 4.125 22.6875 4.125Z"/>
</svg>
