<svg width="20" height="22" viewBox="0 0 20 22" fill="none" xmlns="http://www.w3.org/2000/svg">
<path id="Vector" d="M0.5 6V6.5H1H2.5V9.5H1H0.5V10V12V12.5H1H2.5V15.5H1H0.5V16V18V18.5H1H2.5V19C2.5 20.3261 3.67386 21.5 5 21.5H17C18.3261 21.5 19.5 20.3261 19.5 19V3C19.5 1.67386 18.3261 0.5 17 0.5H16H15.5V1V7.1169L13.7572 6.07125L13.5 5.9169L13.2428 6.07125L11.5 7.1169V1V0.5H11H5C3.62549 0.5 2.5 1.61223 2.5 3V3.5H1H0.5V4V6ZM3.5 16.5H4.5V17.5H3.5V16.5ZM3.5 10.5H4.5V11.5H3.5V10.5ZM3.5 4.5H4.5V5.5H3.5V4.5Z" fill="#9B65A2" stroke="white"/>
</svg>
