<svg width="118" height="62" viewBox="0 0 118 62" fill="none" xmlns="http://www.w3.org/2000/svg">
    <g id="ring">
        <circle id="Ellipse 10" cx="105.5" cy="31.5" r="12.5" fill="white"/>
        <path id="Subtract" fill-rule="evenodd" clip-rule="evenodd" d="M61 61.8781C59.3528 61.9588 57.6851 62 56 62C25.0721 62 0 48.1208 0 31C0 13.8792 25.0721 0 56 0C86.9279 0 112 13.8792 112 31C112 35.6112 110.181 39.9872 106.919 43.9203C106.453 43.973 105.98 44 105.5 44C102.164 44 99.1335 42.6933 96.892 40.5638C99.5298 37.6515 101 34.4125 101 31C101 18.2975 80.629 8 55.5 8C30.371 8 10 18.2975 10 31C10 43.7025 30.371 54 55.5 54C57.3616 54 59.197 53.9435 61 53.8337V61.8781Z" fill="#D9D9D9"/>
    </g>
</svg>
