<svg width="46" height="46" viewBox="0 0 46 46" fill="current" xmlns="http://www.w3.org/2000/svg">
<path d="M32.5833 5.75H9.58333C7.45583 5.75 5.75 7.475 5.75 9.58333V36.4167C5.75 38.525 7.45583 40.25 9.58333 40.25H36.4167C38.525 40.25 40.25 38.525 40.25 36.4167V13.4167L32.5833 5.75ZM36.4167 36.4167H9.58333V9.58333H30.9925L36.4167 15.0075V36.4167ZM23 23C19.8183 23 17.25 25.5683 17.25 28.75C17.25 31.9317 19.8183 34.5 23 34.5C26.1817 34.5 28.75 31.9317 28.75 28.75C28.75 25.5683 26.1817 23 23 23ZM11.5 11.5H28.75V19.1667H11.5V11.5Z" fill="current"/>
</svg>
