<svg width="29" height="30" viewBox="0 0 29 30" fill="#74ABD9" xmlns="http://www.w3.org/2000/svg">
    <path d="M14.4665 24.1518L22.9745 15.3968C21.1022 15.836 18.8582 16.7002 17.1511 18.4852C15.7331 19.9585 14.8382 21.8427 14.4665 24.1518ZM26.3475 12.1668H26.7605C27.2974 12.1668 27.7793 12.5493 27.972 13.0735C28.1647 13.5835 28.0684 14.1927 27.6554 14.5893L13.8883 28.756C13.6129 29.0252 13.2825 29.1668 12.9246 29.1668L12.429 29.0677C11.9196 28.8693 11.5479 28.3735 11.5479 27.821C11.3276 23.0185 12.5529 19.1935 15.2099 16.4593C19.1198 12.4502 24.7918 12.1668 26.3475 12.1668ZM14.3013 0.833496C20.4965 0.833496 25.783 5.0835 27.4902 10.906L25.3149 10.7502H24.5165C22.8919 6.59933 18.927 3.66683 14.3013 3.66683C11.3803 3.66683 8.57889 4.86087 6.51343 6.98629C4.44796 9.1117 3.2876 11.9944 3.2876 15.0002C3.2876 19.7602 6.13739 23.8402 10.1711 25.5118C10.1298 26.5177 10.1711 27.5377 10.3226 28.5577C4.66431 26.801 0.53418 21.3752 0.53418 15.0002C0.53418 7.166 6.72937 0.833496 14.3013 0.833496Z" />
</svg>
