<svg width="28" height="30" viewBox="0 0 28 30" fill="#74ABD9" xmlns="http://www.w3.org/2000/svg">
    <path d="M27.0725 23.6568L27.1084 23.7629C27.2884 24.2952 27.3711 24.8384 27.3711 25.3756C27.3711 26.6167 26.8971 27.8021 25.9379 28.7013C25.0758 29.5313 23.9508 30 22.7132 30C21.7589 30 20.8635 29.7197 20.0939 29.2141L19.9672 29.1308L19.8492 29.0357C19.1809 28.4968 18.7072 27.834 18.382 27.147L18.3572 27.0949L17.0131 23.9539H10.5762L9.31155 26.9778C8.99701 27.8306 8.43535 28.6119 7.59935 29.1781C6.81045 29.7279 5.89806 30 4.96041 30C3.95169 30 2.67743 29.7312 1.66063 28.7291C0.700412 27.7827 0.371094 26.5949 0.371094 25.5445C0.371094 25.157 0.443969 24.7243 0.482029 24.4993L0.540205 24.1553L9.42703 2.92881L9.44019 2.89917C9.78534 2.12164 10.3415 1.34709 11.1951 0.779185C12.0752 0.18621 13.0954 -0.0686792 14.1292 0.0157621C14.9951 0.0481934 15.8408 0.303778 16.5932 0.798143C17.4569 1.36562 18.0352 2.15949 18.3569 3.02791L27.0725 23.6568ZM15.4476 4.12993C15.3716 3.90523 15.2602 3.71541 15.1134 3.56046C15.0396 3.4825 14.9568 3.41337 14.865 3.35307C14.5908 3.17292 14.2824 3.08285 13.9396 3.08285C13.5741 3.03782 13.2428 3.11663 12.9458 3.31929C12.6716 3.49943 12.4545 3.76965 12.2946 4.12993L3.55526 25.0041C3.50957 25.2743 3.48672 25.4544 3.48672 25.5445C3.48672 25.9724 3.61238 26.3101 3.86371 26.5578C4.11504 26.8055 4.4806 26.9294 4.96041 26.9294C5.28028 26.9294 5.56588 26.8393 5.8172 26.6592C6.02307 26.5239 6.18385 26.3442 6.29954 26.1201C6.33794 26.0457 6.37136 25.9664 6.39983 25.8823L8.49041 20.8833H19.0804L21.2053 25.8485C21.3652 26.1863 21.5708 26.4565 21.8222 26.6592C22.0963 26.8393 22.3934 26.9294 22.7132 26.9294C23.1245 26.9294 23.4786 26.783 23.7757 26.4903C24.0955 26.1975 24.2555 25.826 24.2555 25.3756C24.2555 25.1504 24.2212 24.9365 24.1527 24.7339L15.4476 4.12993ZM13.7683 8.35205L17.7781 17.8096H9.44019L13.7683 8.35205Z" />
</svg>
